<svg width="24" height="24" viewBox="0 0 24 24" fill="none" xmlns="http://www.w3.org/2000/svg">
<path d="M12 6.02988V19.0299M12 6.02988C9.181 5.19888 7.285 4.95388 3.97101 5.00688C3.71123 5.01186 3.46382 5.11878 3.28217 5.30455C3.10051 5.49032 2.99917 5.74006 3.00001 5.99988V16.9999C3.00001 17.5629 3.46601 18.0139 4.03001 18.0069C7.15201 17.9639 9.048 18.2189 12 19.0299M12 6.02988C14.819 5.19888 16.715 4.95388 20.029 5.00688C20.2888 5.01186 20.5362 5.11878 20.7178 5.30455C20.8995 5.49032 21.0008 5.74006 21 5.99988V16.9999C21 17.5629 20.534 18.0139 19.97 18.0069C16.848 17.9639 14.952 18.2189 12 19.0299" stroke="#1F1E30" stroke-width="2" stroke-linecap="round" stroke-linejoin="round"/>
</svg>
