<svg width="24" height="24" viewBox="0 0 24 24" fill="none" xmlns="http://www.w3.org/2000/svg">
<path d="M8.0322 12.0002L10.0162 13.9842L14.9762 9.02418M19.5262 14.2962L20.4192 13.4032C20.6035 13.2189 20.7496 13.0002 20.8493 12.7595C20.9491 12.5188 21.0004 12.2607 21.0004 12.0002C21.0004 11.7396 20.9491 11.4816 20.8493 11.2409C20.7496 11.0001 20.6035 10.7814 20.4192 10.5972L19.5262 9.70418C19.342 9.51993 19.1958 9.30119 19.0962 9.06046C18.9965 8.81974 18.9452 8.56173 18.9452 8.30118V7.04018C18.9452 6.51399 18.7362 6.00935 18.3641 5.63728C17.992 5.2652 17.4874 5.05618 16.9612 5.05618H15.6992C15.4386 5.05626 15.1806 5.00499 14.9399 4.9053C14.6991 4.8056 14.4804 4.65945 14.2962 4.47518L13.4032 3.58218C13.219 3.39792 13.0002 3.25175 12.7595 3.15203C12.5188 3.0523 12.2608 3.00098 12.0002 3.00098C11.7396 3.00098 11.4816 3.0523 11.2409 3.15203C11.0002 3.25175 10.7814 3.39792 10.5972 3.58218L9.7042 4.47518C9.51995 4.6594 9.30121 4.80553 9.06049 4.90522C8.81976 5.00491 8.56175 5.0562 8.3012 5.05618H7.0402C6.77957 5.05605 6.52147 5.10727 6.28065 5.20691C6.03982 5.30656 5.82099 5.45268 5.63665 5.63692C5.45232 5.82117 5.30609 6.03993 5.20632 6.2807C5.10655 6.52148 5.0552 6.77955 5.0552 7.04018V8.30218C5.0552 8.82918 4.8462 9.33318 4.4742 9.70518L3.5812 10.5982C3.39694 10.7824 3.25077 11.0011 3.15105 11.2419C3.05133 11.4826 3 11.7406 3 12.0012C3 12.2617 3.05133 12.5198 3.15105 12.7605C3.25077 13.0012 3.39694 13.2199 3.5812 13.4042L4.4742 14.2972C4.8462 14.6692 5.0552 15.1732 5.0552 15.7002V16.9622C5.0552 17.4884 5.26423 17.993 5.6363 18.3651C6.00837 18.7372 6.51301 18.9462 7.0392 18.9462H8.3012C8.8282 18.9462 9.3322 19.1552 9.7042 19.5272L10.5972 20.4202C10.7814 20.6044 11.0002 20.7506 11.2409 20.8503C11.4816 20.9501 11.7396 21.0014 12.0002 21.0014C12.2608 21.0014 12.5188 20.9501 12.7595 20.8503C13.0002 20.7506 13.219 20.6044 13.4032 20.4202L14.2962 19.5272C14.6684 19.1552 15.173 18.9462 15.6992 18.9462H16.9612C17.4874 18.9462 17.992 18.7372 18.3641 18.3651C18.7362 17.993 18.9452 17.4884 18.9452 16.9622V15.7002C18.9452 15.1732 19.1542 14.6682 19.5262 14.2962Z" stroke="#1F1E30" stroke-width="2" stroke-linecap="round" stroke-linejoin="round"/>
</svg>
