<svg width="174" height="24" viewBox="0 0 174 24" fill="none" xmlns="http://www.w3.org/2000/svg">
<path d="M22.4142 22.4104C20.3099 24.5299 16.8829 24.5299 14.77 22.4104C14.435 22.0757 14.2289 21.7839 14.0828 21.5694C12.4939 19.1152 14.1516 17.073 12.7773 14.4043C12.2963 13.4689 11.6006 12.7653 11.3945 12.5593C11.1883 12.3534 10.4067 11.5811 9.35027 11.0748C6.63613 9.76192 4.65205 11.3837 2.29865 9.77908C2.11828 9.65895 1.8692 9.47016 1.57717 9.17841C-0.527152 7.05889 -0.527152 3.62648 1.58576 1.50696C3.91339 -0.827077 7.79565 -0.149175 9.23003 1.50696C9.40181 1.70433 9.4877 1.86737 9.66807 2.18487C11.2055 5.00803 9.89997 6.72423 11.1626 9.28996C11.6779 10.3454 12.3908 11.0662 12.6485 11.3151C12.9061 11.5725 13.6706 12.3276 14.7442 12.8339C17.4498 14.1039 19.3995 12.5508 21.7013 14.1382C21.8817 14.2584 22.1222 14.4472 22.4228 14.7389C24.5272 16.8499 24.5272 20.2908 22.4142 22.4104Z" fill="url(#paint0_linear_121_10554)"/>
<path d="M18.4284 11.1429C21.5054 11.1429 23.9998 8.64844 23.9998 5.57143C23.9998 2.49441 21.5054 0 18.4284 0C15.3513 0 12.8569 2.49441 12.8569 5.57143C12.8569 8.64844 15.3513 11.1429 18.4284 11.1429Z" fill="#DAFB59"/>
<path d="M5.57143 24C8.64844 24 11.1429 21.5056 11.1429 18.4286C11.1429 15.3516 8.64844 12.8572 5.57143 12.8572C2.49441 12.8572 0 15.3516 0 18.4286C0 21.5056 2.49441 24 5.57143 24Z" fill="#F6F6F1"/>
<path d="M40.422 2.5V20.05L38.42 18.1H53.058V22H36.002V2.5H40.422ZM62.9508 22.39C61.2001 22.39 59.6315 22.0693 58.2448 21.428C56.8755 20.7693 55.7921 19.8507 54.9948 18.672C54.2148 17.4933 53.8248 16.124 53.8248 14.564C53.8248 13.0213 54.1975 11.6693 54.9428 10.508C55.7055 9.34667 56.7455 8.44533 58.0628 7.804C59.3801 7.14533 60.8795 6.816 62.5608 6.816C64.2768 6.816 65.7501 7.19733 66.9808 7.96C68.2115 8.70533 69.1561 9.76267 69.8148 11.132C70.4908 12.5013 70.8288 14.1133 70.8288 15.968H57.3088V13.082H68.4888L66.7988 14.122C66.7295 13.2553 66.5128 12.5187 66.1488 11.912C65.8021 11.3053 65.3255 10.8373 64.7188 10.508C64.1121 10.1787 63.4015 10.014 62.5868 10.014C61.7028 10.014 60.9315 10.196 60.2728 10.56C59.6315 10.9067 59.1288 11.4007 58.7648 12.042C58.4181 12.666 58.2448 13.4027 58.2448 14.252C58.2448 15.2747 58.4701 16.15 58.9208 16.878C59.3715 17.606 60.0301 18.1607 60.8968 18.542C61.7635 18.9233 62.8121 19.114 64.0428 19.114C65.1521 19.114 66.2701 18.958 67.3968 18.646C68.5235 18.3167 69.5375 17.8573 70.4388 17.268V20.18C69.4681 20.8733 68.3328 21.4193 67.0328 21.818C65.7501 22.1993 64.3895 22.39 62.9508 22.39ZM86.9145 22L86.2905 16.592L86.9925 14.616L86.2905 12.666L86.9145 7.206H91.4125L90.5545 14.616L91.4125 22H86.9145ZM88.0585 14.616C87.7811 16.176 87.2698 17.5453 86.5245 18.724C85.7965 19.8853 84.8691 20.7867 83.7425 21.428C82.6331 22.0693 81.3851 22.39 79.9985 22.39C78.5598 22.39 77.2858 22.0693 76.1765 21.428C75.0671 20.7693 74.2005 19.8593 73.5765 18.698C72.9698 17.5193 72.6665 16.1587 72.6665 14.616C72.6665 13.056 72.9698 11.6953 73.5765 10.534C74.2005 9.35533 75.0671 8.44533 76.1765 7.804C77.2858 7.14533 78.5598 6.816 79.9985 6.816C81.3851 6.816 82.6331 7.13667 83.7425 7.778C84.8691 8.41933 85.8051 9.32933 86.5505 10.508C87.2958 11.6693 87.7985 13.0387 88.0585 14.616ZM77.0605 14.616C77.0605 15.4827 77.2338 16.2453 77.5805 16.904C77.9445 17.5627 78.4385 18.0827 79.0625 18.464C79.6865 18.828 80.4058 19.01 81.2205 19.01C82.0351 19.01 82.7978 18.828 83.5085 18.464C84.2365 18.0827 84.8778 17.5627 85.4325 16.904C85.9871 16.2453 86.4205 15.4827 86.7325 14.616C86.4205 13.7493 85.9871 12.9867 85.4325 12.328C84.8778 11.652 84.2365 11.132 83.5085 10.768C82.7978 10.3867 82.0351 10.196 81.2205 10.196C80.4058 10.196 79.6865 10.3867 79.0625 10.768C78.4385 11.132 77.9445 11.652 77.5805 12.328C77.2338 12.9867 77.0605 13.7493 77.0605 14.616ZM93.6137 7.206H98.0077L98.8917 12.536V22H94.5497V12.068L93.6137 7.206ZM106.094 7.05V10.794C105.643 10.69 105.192 10.612 104.742 10.56C104.291 10.508 103.866 10.482 103.468 10.482C102.601 10.482 101.821 10.664 101.128 11.028C100.434 11.392 99.8884 11.9553 99.4897 12.718C99.0911 13.4807 98.8917 14.4427 98.8917 15.604L97.9817 14.512C98.0857 13.4547 98.2764 12.4667 98.5537 11.548C98.8311 10.612 99.2124 9.79733 99.6977 9.104C100.2 8.39333 100.816 7.83867 101.544 7.44C102.272 7.024 103.138 6.816 104.144 6.816C104.473 6.816 104.802 6.842 105.132 6.894C105.478 6.92867 105.799 6.98067 106.094 7.05ZM107.401 7.206H111.743L112.679 12.848V22H108.337V12.198L107.401 7.206ZM118.321 6.816C119.725 6.816 120.921 7.102 121.909 7.674C122.897 8.22867 123.651 9.026 124.171 10.066C124.691 11.106 124.951 12.3453 124.951 13.784V22H120.609V14.434C120.609 13.0993 120.288 12.094 119.647 11.418C119.006 10.7247 118.07 10.378 116.839 10.378C116.007 10.378 115.27 10.5687 114.629 10.95C114.005 11.314 113.52 11.8253 113.173 12.484C112.844 13.1427 112.679 13.9313 112.679 14.85L111.249 14.096C111.422 12.536 111.838 11.2187 112.497 10.144C113.156 9.06933 113.988 8.246 114.993 7.674C115.998 7.102 117.108 6.816 118.321 6.816ZM136.355 22.39C134.604 22.39 133.036 22.0693 131.649 21.428C130.28 20.7693 129.196 19.8507 128.399 18.672C127.619 17.4933 127.229 16.124 127.229 14.564C127.229 13.0213 127.602 11.6693 128.347 10.508C129.11 9.34667 130.15 8.44533 131.467 7.804C132.784 7.14533 134.284 6.816 135.965 6.816C137.681 6.816 139.154 7.19733 140.385 7.96C141.616 8.70533 142.56 9.76267 143.219 11.132C143.895 12.5013 144.233 14.1133 144.233 15.968H130.713V13.082H141.893L140.203 14.122C140.134 13.2553 139.917 12.5187 139.553 11.912C139.206 11.3053 138.73 10.8373 138.123 10.508C137.516 10.1787 136.806 10.014 135.991 10.014C135.107 10.014 134.336 10.196 133.677 10.56C133.036 10.9067 132.533 11.4007 132.169 12.042C131.822 12.666 131.649 13.4027 131.649 14.252C131.649 15.2747 131.874 16.15 132.325 16.878C132.776 17.606 133.434 18.1607 134.301 18.542C135.168 18.9233 136.216 19.114 137.447 19.114C138.556 19.114 139.674 18.958 140.801 18.646C141.928 18.3167 142.942 17.8573 143.843 17.268V20.18C142.872 20.8733 141.737 21.4193 140.437 21.818C139.154 22.1993 137.794 22.39 136.355 22.39ZM165.847 19.634H164.417L169.045 7.206H173.387L167.667 22H163.221L158.281 9.234H159.841L154.823 22H150.377L144.657 7.206H149.051L153.705 19.634H152.223L156.955 7.206H161.193L165.847 19.634Z" fill="#F6F6F1"/>
<defs>
<linearGradient id="paint0_linear_121_10554" x1="11.6624" y1="-5.08184" x2="13.1863" y2="71.0581" gradientUnits="userSpaceOnUse">
<stop offset="0.0729" stop-color="#DAFB59"/>
<stop offset="0.1024" stop-color="#D1F860"/>
<stop offset="0.1499" stop-color="#BAEE72"/>
<stop offset="0.2097" stop-color="#93DF8F"/>
<stop offset="0.2792" stop-color="#5DCAB8"/>
<stop offset="0.3561" stop-color="#19B0EC"/>
<stop offset="0.3825" stop-color="#00A6FF"/>
</linearGradient>
</defs>
</svg>
